<?xml version="1.0" standalone="no"?><!DOCTYPE svg PUBLIC "-//W3C//DTD SVG 1.1//EN" "http://www.w3.org/Graphics/SVG/1.1/DTD/svg11.dtd"><svg width="100%" height="100%" viewBox="0 0 180 180" version="1.1" xmlns="http://www.w3.org/2000/svg" xmlns:xlink="http://www.w3.org/1999/xlink" xml:space="preserve" style="fill-rule:evenodd;clip-rule:evenodd;stroke-linejoin:round;stroke-miterlimit:1.41421;"><g><path d="M90.635,166.901l66.28,-114.802" style="fill:none;stroke-width:6px;stroke:#121314;"/><path d="M21.711,127.108l66.281,-114.802" style="fill:none;stroke-width:6px;stroke:#121314;"/><g><g><path d="M24.199,103.971l86.602,50" style="fill:none;stroke-width:11px;stroke-linecap:square;stroke:#121314;"/><path d="M30.895,104.373l-1,1.732l-0.866,-0.5l-1,1.732l0.866,0.5l-1,1.732l-2.598,-1.5l3,-5.196l2.598,1.5Z" style="fill:#fdfdfd;"/><path d="M36.091,107.373l-1,1.732l0.866,0.5l-1,1.732l-0.866,-0.5l-1,1.732l2.598,1.5l3,-5.196l-2.598,-1.5Z" style="fill:#fdfdfd;"/><path d="M100.177,144.373l-1,1.732l-0.866,-0.5l-1,1.732l0.866,0.5l-1,1.732l-2.598,-1.5l3,-5.196l2.598,1.5Z" style="fill:#fdfdfd;"/><path d="M105.373,147.373l-1,1.732l0.866,0.5l-1,1.732l-0.866,-0.5l-1,1.732l2.598,1.5l3,-5.196l-2.598,-1.5Z" style="fill:#fdfdfd;"/></g><g><path d="M39.199,77.99l86.602,50" style="fill:none;stroke-width:11px;stroke-linecap:square;stroke:#121314;"/><path d="M45.895,78.392l-1,1.732l-0.866,-0.5l-1,1.732l0.866,0.5l-1,1.732l-2.598,-1.5l3,-5.196l2.598,1.5Z" style="fill:#fdfdfd;"/><path d="M51.091,81.392l-1,1.732l0.866,0.5l-1,1.732l-0.866,-0.5l-1,1.732l2.598,1.5l3,-5.196l-2.598,-1.5Z" style="fill:#fdfdfd;"/><path d="M115.177,118.392l-1,1.732l-0.866,-0.5l-1,1.732l0.866,0.5l-1,1.732l-2.598,-1.5l3,-5.196l2.598,1.5Z" style="fill:#fdfdfd;"/><path d="M120.373,121.392l-1,1.732l0.866,0.5l-1,1.732l-0.866,-0.5l-1,1.732l2.598,1.5l3,-5.196l-2.598,-1.5Z" style="fill:#fdfdfd;"/></g><g><path d="M54.199,52.01l86.602,50" style="fill:none;stroke-width:11px;stroke-linecap:square;stroke:#121314;"/><path d="M60.895,52.412l-1,1.732l-0.866,-0.5l-1,1.732l0.866,0.5l-1,1.732l-2.598,-1.5l3,-5.196l2.598,1.5Z" style="fill:#fdfdfd;"/><path d="M66.091,55.412l-1,1.732l0.866,0.5l-1,1.732l-0.866,-0.5l-1,1.732l2.598,1.5l3,-5.196l-2.598,-1.5Z" style="fill:#fdfdfd;"/><path d="M130.177,92.412l-1,1.732l-0.866,-0.5l-1,1.732l0.866,0.5l-1,1.732l-2.598,-1.5l3,-5.196l2.598,1.5Z" style="fill:#fdfdfd;"/><path d="M135.373,95.412l-1,1.732l0.866,0.5l-1,1.732l-0.866,-0.5l-1,1.732l2.598,1.5l3,-5.196l-2.598,-1.5Z" style="fill:#fdfdfd;"/></g><g><path d="M69.199,26.029l86.602,50" style="fill:none;stroke-width:11px;stroke-linecap:square;stroke:#121314;"/><path d="M75.895,26.431l-1,1.732l-0.866,-0.5l-1,1.732l0.866,0.5l-1,1.732l-2.598,-1.5l3,-5.196l2.598,1.5Z" style="fill:#fdfdfd;"/><path d="M81.091,29.431l-1,1.732l0.866,0.5l-1,1.732l-0.866,-0.5l-1,1.732l2.598,1.5l3,-5.196l-2.598,-1.5Z" style="fill:#fdfdfd;"/><path d="M145.177,66.431l-1,1.732l-0.866,-0.5l-1,1.732l0.866,0.5l-1,1.732l-2.598,-1.5l3,-5.196l2.598,1.5Z" style="fill:#fdfdfd;"/><path d="M150.373,69.431l-1,1.732l0.866,0.5l-1,1.732l-0.866,-0.5l-1,1.732l2.598,1.5l3,-5.196l-2.598,-1.5Z" style="fill:#fdfdfd;"/></g></g></g></svg>